# xmcd CD database file
#
# Track frame offsets:
#	150
#	25827
#	43572
#	64004
#	95158
#	133101
#	153349
#	166539
#	185899
#	207682
#	225934
#	248064
#	272519
#
# Disc length: 3838 seconds
#
# Revision: 0
# Processed by: cddbd v1.5.2PL0 Copyright (c) Steve Scherf et al.
# Submitted via: CDex 1.70beta2
#
DISCID=ad0efc0d
DTITLE=Blues Alive - Blues Alive 2012
DYEAR=2012
DGENRE=Blues
TTITLE0=Juicy Band - I'm Posed
TTITLE1=Jim Campilongo - Twister
TTITLE2=Hugo Race and The fatalist - Serpent Egg
TTITLE3=Eric Bibb and Habit Koité - Goin' Down The Road Feelin' Bad
TTITLE4=Lucky Peterson and Tamara Peterson - Last Night You Left
TTITLE5=Low Society - Sugar Soated Love
TTITLE6=The Kingsize Boogiemen - Fries Wtih That
TTITLE7=Mississippi Big Beat Band - Hurricane
TTITLE8=Shemekia Copeland - Mississippi Mud
TTITLE9=Moreland and Arbuckle - Don't Wake Me
TTITLE10=Paul Batto Jr. - Voice Cryin' In The Wilderness
TTITLE11=Vladimír Mišík and ETC... - Špejchar Blues
TTITLE12=Rolling Stones 50th Anniversary Band and Alec Carter - Brown Sugar
EXTD=YEAR: 2012
EXTT0=
EXTT1=
EXTT2=
EXTT3=
EXTT4=
EXTT5=
EXTT6=
EXTT7=
EXTT8=
EXTT9=
EXTT10=
EXTT11=
EXTT12=
PLAYORDER=
